<svg xmlns="http://www.w3.org/2000/svg"><path d="M105.0,51.0 L105.0,92.0 M118.5,51.0 L118.5,92.0 M105.0,71.5 L118.5,71.5" stroke="black" fill="none"/><path d="M137.0,51.0 L123.5,51.0 L123.5,92.0 L137.0,92.0 M123.5,71.5 L132.95,71.5" stroke="black" fill="none"/><path d="M142.0,51.0 L142.0,92.0 L155.5,92.0" stroke="black" fill="none"/><path d="M160.5,51.0 L160.5,92.0 L174.0,92.0" stroke="black" fill="none"/><path d="M181.7,51.0 L189.8,51.0 L192.5,71.5 L189.8,92.0 L181.7,92.0 L179.0,71.5 L181.7,51.0" stroke="black" fill="none"/><path d="M229.5,59.2 L226.8,51.0 L218.7,51.0 L216.0,71.5 L218.7,92.0 L226.8,92.0 L229.5,83.8 L229.5,75.6 L224.1,75.6" stroke="black" fill="none"/><path d="M234.5,51.0 L234.5,83.8 L237.2,92.0 L245.3,92.0 L248.0,83.8 L248.0,51.0" stroke="black" fill="none"/><path d="M253.0,51.0 L259.75,71.5 L266.5,51.0 M259.75,71.5 L259.75,92.0" stroke="black" fill="none"/><path d="M285.0,51.0 L274.2,51.0 L271.5,63.3 L274.2,71.5 L282.3,71.5 L285.0,79.69999999999999 L282.3,92.0 L271.5,92.0" stroke="black" fill="none"/><path d="M308.5,92.0 L308.5,51.0 L315.25,71.5 L322.0,51.0 L322.0,92.0" stroke="black" fill="none"/><path d="M327.0,51.0 L333.75,71.5 L340.5,51.0 M333.75,71.5 L333.75,92.0" stroke="black" fill="none"/><path d="M364.0,92.0 L364.0,51.0 L377.5,92.0 L377.5,51.0" stroke="black" fill="none"/><path d="M382.5,92.0 L389.25,51.0 L396.0,92.0 M385.2,75.6 L393.3,75.6" stroke="black" fill="none"/><path d="M401.0,92.0 L401.0,51.0 L407.75,71.5 L414.5,51.0 L414.5,92.0" stroke="black" fill="none"/><path d="M433.0,51.0 L419.5,51.0 L419.5,92.0 L433.0,92.0 M419.5,71.5 L428.95,71.5" stroke="black" fill="none"/><path d="M456.5,51.0 L470.0,51.0 M463.25,51.0 L463.25,92.0 M456.5,92.0 L470.0,92.0" stroke="black" fill="none"/><path d="M488.5,51.0 L477.7,51.0 L475.0,63.3 L477.7,71.5 L485.8,71.5 L488.5,79.69999999999999 L485.8,92.0 L475.0,92.0" stroke="black" fill="none"/><path d="M512.0,92.0 L518.75,51.0 L525.5,92.0 M514.7,75.6 L522.8,75.6" stroke="black" fill="none"/><path d="M530.5,51.0 L530.5,92.0 L538.6,92.0 L541.3,83.8 L541.3,75.6 L538.6,71.5 L530.5,71.5 M538.6,71.5 L541.3,67.4 L541.3,59.2 L538.6,51.0 L530.5,51.0" stroke="black" fill="none"/><path d="M549.0,51.0 L549.0,92.0 M562.5,51.0 L562.5,92.0 M549.0,71.5 L562.5,71.5" stroke="black" fill="none"/><path d="M567.5,92.0 L574.25,51.0 L581.0,92.0 M570.2,75.6 L578.3,75.6" stroke="black" fill="none"/><path d="M586.0,51.0 L592.75,71.5 L599.5,51.0 M592.75,71.5 L592.75,92.0" stroke="black" fill="none"/></svg>