<svg xmlns="http://www.w3.org/2000/svg"><path d="M105.0,51.0 L105.0,92.0 M118.5,51.0 L118.5,92.0 M105.0,71.5 L118.5,71.5" stroke="black" fill="none"/><path d="M137.0,51.0 L123.5,51.0 L123.5,92.0 L137.0,92.0 M123.5,71.5 L132.95,71.5" stroke="black" fill="none"/><path d="M142.0,51.0 L142.0,92.0 L155.5,92.0" stroke="black" fill="none"/><path d="M160.5,51.0 L160.5,92.0 L174.0,92.0" stroke="black" fill="none"/><path d="M181.7,51.0 L189.8,51.0 L192.5,71.5 L189.8,92.0 L181.7,92.0 L179.0,71.5 L181.7,51.0" stroke="black" fill="none"/><path d="M229.5,51.0 L216.0,51.0 L216.0,92.0 L229.5,92.0 M216.0,71.5 L225.45,71.5" stroke="black" fill="none"/><path d="M234.5,51.0 L241.25,92.0 L248.0,51.0" stroke="black" fill="none"/><path d="M266.5,51.0 L253.0,51.0 L253.0,92.0 L266.5,92.0 M253.0,71.5 L262.45,71.5" stroke="black" fill="none"/><path d="M271.5,92.0 L271.5,51.0 L279.6,51.0 L285.0,63.3 L279.6,75.6 L271.5,75.6 M279.6,75.6 L285.0,92.0" stroke="black" fill="none"/><path d="M290.0,51.0 L296.75,71.5 L303.5,51.0 M296.75,71.5 L296.75,92.0" stroke="black" fill="none"/><path d="M311.2,51.0 L319.3,51.0 L322.0,71.5 L319.3,92.0 L311.2,92.0 L308.5,71.5 L311.2,51.0" stroke="black" fill="none"/><path d="M327.0,92.0 L327.0,51.0 L340.5,92.0 L340.5,51.0" stroke="black" fill="none"/><path d="M359.0,51.0 L345.5,51.0 L345.5,92.0 L359.0,92.0 M345.5,71.5 L354.95,71.5" stroke="black" fill="none"/></svg>