<svg xmlns="http://www.w3.org/2000/svg"><path d="M10,10 L60,10 M35,10 L35,60 M10,60 L60,60" stroke="black" fill="none"/><path d="M75,10 L125,10 M100,10 L100,60" stroke="black" fill="none"/><path d="M205,10 L255,10 M230,10 L230,60 M205,60 L255,60" stroke="black" fill="none"/><path d="M320,10 L280,10 L270,25 L280,35 L310,35 L320,45 L310,60 L270,60" stroke="black" fill="none"/><path d="M400,60 L400,10 L430,10 L450,25 L430,40 L400,40 M430,40 L450,60" stroke="black" fill="none"/><path d="M465,60 L490,10 L515,60 M475,40 L505,40" stroke="black" fill="none"/><path d="M530,10 L580,10 M555,10 L555,60 M530,60 L580,60" stroke="black" fill="none"/><path d="M595,60 L595,10 L645,60 L645,10" stroke="black" fill="none"/><path d="M660,10 L710,10 M685,10 L685,60 M660,60 L710,60" stroke="black" fill="none"/><path d="M725,60 L725,10 L775,60 L775,10" stroke="black" fill="none"/><path d="M840,20 L830,10 L800,10 L790,35 L800,60 L830,60 L840,50 L840,40 L820,40" stroke="black" fill="none"/><path d="M930,10 L960,10 L970,35 L960,60 L930,60 L920,35 L930,10" stroke="black" fill="none"/><path d="M985,10 L985,50 L995,60 L1025,60 L1035,50 L1035,10" stroke="black" fill="none"/><path d="M1050,10 L1100,10 M1075,10 L1075,60" stroke="black" fill="none"/><path d="M1165,10 L1125,10 L1115,25 L1125,35 L1155,35 L1165,45 L1155,60 L1115,60" stroke="black" fill="none"/><path d="M1180,10 L1230,10 M1205,10 L1205,60 M1180,60 L1230,60" stroke="black" fill="none"/><path d="M1245,10 L1245,60 L1275,60 L1295,35 L1275,10 L1245,10" stroke="black" fill="none"/><path d="M1360,10 L1310,10 L1310,60 L1360,60 M1310,35 L1345,35" stroke="black" fill="none"/><path d="M1440,60 L1465,10 L1490,60 M1450,40 L1480,40" stroke="black" fill="none"/><path d="M1505,60 L1505,10 L1555,60 L1555,10" stroke="black" fill="none"/><path d="M1570,10 L1570,60 L1600,60 L1620,35 L1600,10 L1570,10" stroke="black" fill="none"/><path d="M1700,10 L1750,10 M1725,10 L1725,60 M1700,60 L1750,60" stroke="black" fill="none"/><path d="M1765,10 L1815,10 M1790,10 L1790,60" stroke="black" fill="none"/><path d="M1895,10 L1945,10 M1920,10 L1920,60 M1895,60 L1945,60" stroke="black" fill="none"/><path d="M2010,10 L1970,10 L1960,25 L1970,35 L2000,35 L2010,45 L2000,60 L1960,60" stroke="black" fill="none"/><path d="M2090,60 L2090,10 L2115,35 L2140,10 L2140,60" stroke="black" fill="none"/><path d="M2155,60 L2180,10 L2205,60 M2165,40 L2195,40" stroke="black" fill="none"/><path d="M2220,60 L2220,10 L2270,60 L2270,10" stroke="black" fill="none"/><path d="M2285,10 L2285,60 L2315,60 L2335,35 L2315,10 L2285,10" stroke="black" fill="none"/><path d="M2350,60 L2375,10 L2400,60 M2360,40 L2390,40" stroke="black" fill="none"/><path d="M2415,10 L2465,10 M2440,10 L2440,60" stroke="black" fill="none"/><path d="M2490,10 L2520,10 L2530,35 L2520,60 L2490,60 L2480,35 L2490,10" stroke="black" fill="none"/><path d="M2545,60 L2545,10 L2575,10 L2595,25 L2575,40 L2545,40 M2575,40 L2595,60" stroke="black" fill="none"/><path d="M2610,10 L2635,35 L2660,10 M2635,35 L2635,60" stroke="black" fill="none"/><path d="M2740,10 L2790,10 M2765,10 L2765,60" stroke="black" fill="none"/><path d="M2815,10 L2845,10 L2855,35 L2845,60 L2815,60 L2805,35 L2815,10" stroke="black" fill="none"/><path d="M2935,10 L2945,60 L2960,35 L2975,60 L2985,10" stroke="black" fill="none"/><path d="M3050,10 L3000,10 L3000,60 L3050,60 M3000,35 L3035,35" stroke="black" fill="none"/><path d="M3065,10 L3115,10 M3090,10 L3090,60 M3065,60 L3115,60" stroke="black" fill="none"/><path d="M3130,60 L3130,10 L3160,10 L3180,25 L3160,40 L3130,40 M3160,40 L3180,60" stroke="black" fill="none"/><path d="M3195,10 L3195,60 L3225,60 L3245,35 L3225,10 L3195,10" stroke="black" fill="none"/><path d="M3325,60 L3325,10 L3355,10 L3375,25 L3355,40 L3325,40 M3355,40 L3375,60" stroke="black" fill="none"/><path d="M3390,60 L3415,10 L3440,60 M3400,40 L3430,40" stroke="black" fill="none"/><path d="M3455,10 L3505,10 M3480,10 L3480,60 M3455,60 L3505,60" stroke="black" fill="none"/><path d="M3520,60 L3520,10 L3570,60 L3570,10" stroke="black" fill="none"/><path d="M3635,10 L3595,10 L3585,35 L3595,60 L3635,60" stroke="black" fill="none"/><path d="M3660,10 L3690,10 L3700,35 L3690,60 L3660,60 L3650,35 L3660,10" stroke="black" fill="none"/><path d="M3715,60 L3740,10 L3765,60 M3725,40 L3755,40" stroke="black" fill="none"/><path d="M3780,10 L3830,10 M3805,10 L3805,60" stroke="black" fill="none"/></svg>